<?xml version="1.0" encoding="UTF-8"?>
<svg width="72px" height="89px" viewBox="0 0 72 89" version="1.1" xmlns="http://www.w3.org/2000/svg" xmlns:xlink="http://www.w3.org/1999/xlink">
    <!-- Generator: Sketch 46.1 (44463) - http://www.bohemiancoding.com/sketch -->
    <title>AD_Logo black Copy</title>
    <desc>Created with Sketch.</desc>
    <defs></defs>
    <g id="Welcome" stroke="none" stroke-width="1" fill="none" fill-rule="evenodd">
        <g id="portfolio" transform="translate(-50.000000, -19.000000)" fill="#1A1919">
            <g id="menu">
                <g id="AD_Logo-black-Copy" transform="translate(50.000000, 19.000000)">
                    <path d="M64.7335137,33.1544721 C64.7335137,33.1544721 64.6874637,32.3801518 64.5998931,30.9279276 C64.5689415,30.5661795 64.5757358,30.1580918 64.5062832,29.7163705 C64.4338111,29.276144 64.3552995,28.7948098 64.2707486,28.2746101 C64.1801584,27.7559052 64.109951,27.1931029 63.9642517,26.6071309 C63.7989245,26.0271381 63.6230285,25.410522 63.4373185,24.7587776 C62.6559778,22.1764643 61.3288309,19.116554 59.1101252,16.0925194 C56.9216162,13.0617582 53.864196,10.0646305 49.9891989,7.67739221 C48.0158417,6.55104025 45.9284918,5.42693053 43.6063622,4.66382147 C43.0296044,4.46799916 42.4483171,4.27068203 41.8617454,4.07261748 C41.2600753,3.92537705 40.6531207,3.7773892 40.0423916,3.62790652 L39.1236557,3.40144027 C38.8156489,3.32968858 38.5076421,3.3080136 38.1988804,3.2579369 C37.5821119,3.16899471 36.9608139,3.0793051 36.3349864,2.9896155 C35.7121786,2.89319917 34.9934961,2.91412675 34.3208636,2.87077677 L33.2903998,2.82817421 L32.7725256,2.80724663 L32.3459966,2.83415351 C31.0233792,2.92384312 29.6728299,2.90216813 28.3373789,3.16675247 C25.6355253,3.48216091 22.977457,4.34542337 20.3654387,5.38582279 C19.7260226,5.6825459 19.0835869,5.98001643 18.4388864,6.27823436 C17.7972056,6.58392644 17.2038396,6.98528742 16.578767,7.33507688 L15.6494623,7.87919382 L14.7722469,8.50851589 C14.1954891,8.93977341 13.5847599,9.3359025 13.0268751,9.79929879 C10.7704235,11.6371883 8.79782119,13.8405629 7.05773385,16.2412547 C5.36218671,18.6800646 4.04636362,21.3909329 3.05968502,24.2348408 C2.10546793,27.1198564 1.62307496,30.0168307 1.45397319,33.1910953 C1.45246336,36.1635583 1.76801933,39.2780299 2.58182156,42.2176067 C3.477155,45.139993 4.73484936,47.9525095 6.41982765,50.4869883 C6.83729762,51.1207949 7.31893568,51.710504 7.77264175,52.3151614 C8.00817635,52.6111371 8.22106339,52.9250508 8.4732062,53.2060782 L9.24473299,54.0349596 L10.0132401,54.8615988 C10.2631182,55.1426262 10.5250749,55.4109477 10.8149636,55.6508673 C11.3811526,56.1419179 11.9458317,56.6314737 12.509001,57.120282 C13.0857588,57.5904051 13.7146059,57.9940083 14.3102367,58.4312451 C14.612959,58.6435105 14.9081322,58.8654923 15.2176488,59.0650517 L16.1816799,59.6039367 C16.8301549,59.9507365 17.4454136,60.347613 18.1082321,60.6473258 C18.7740703,60.9403118 19.4368888,61.2310556 20.0974426,61.521052 C22.773629,62.5412713 25.5502195,63.3372665 28.2460338,63.5712069 C29.5527978,63.7969258 31.0022415,63.7438594 32.3814778,63.7954309 L32.6411698,63.8043999 L32.7710158,63.8088844 L32.8359388,63.8111266 C32.8699101,63.8133689 32.7717707,63.8066421 32.842733,63.8073895 L33.3424891,63.7730085 L34.335962,63.7064887 C34.994251,63.6466957 35.6548048,63.6541698 36.2972405,63.5420578 C41.475982,62.8798495 46.1443985,61.0613928 50.0254349,58.6846183 C53.8966575,56.2727153 56.9412441,53.2643764 59.1365474,50.2336152 C61.3824301,47.2185496 62.6650368,44.1332272 63.4546817,41.5553984 C63.6396367,40.9029066 63.8147778,40.2855431 63.9793501,39.7048029 C64.1242944,39.1195782 64.193747,38.5582708 64.2820724,38.0403133 C64.3658684,37.520861 64.443625,37.0402742 64.5145873,36.6000477 C64.58253,36.1598213 64.5749808,35.7472491 64.6059325,35.3840062 C64.6897285,33.9258027 64.7342687,33.1477453 64.7342687,33.1477453 L64.7335137,33.1544721 Z M64.9992451,33.1611988 C64.9992451,33.1611988 64.9645188,33.9392561 64.8995958,35.3989544 C64.8739286,35.7636922 64.8867622,36.1717799 64.8233491,36.6187331 C64.7576711,37.0664337 64.6859539,37.5544946 64.6081973,38.0821685 C64.5183619,38.6076001 64.4700472,39.1831084 64.3522799,39.7825339 C64.211865,40.3774749 64.0623911,41.0097867 63.9038582,41.6779742 C63.8238368,42.012068 63.7407958,42.3558782 63.6562449,42.7079099 C63.5384776,43.0502252 63.4169357,43.4007621 63.2931291,43.7602679 C63.0379666,44.4755425 62.839423,45.2550947 62.5042392,46.0159615 C62.1652807,46.7783231 61.8127337,47.5720761 61.4473531,48.3949783 C61.0291282,49.1924683 60.558814,50.0026644 60.0892546,50.8524735 C58.0698474,54.1463242 55.1875682,57.6158171 51.1993333,60.4201121 C47.2209124,63.2087114 42.1372907,65.2259801 36.5584423,65.835122 C35.8646721,65.9315384 35.1550487,65.9053789 34.4476899,65.9457392 L33.38099,65.9816151 L32.8465076,65.999553 C32.8736847,66.0003004 32.7332698,66.0003004 32.7234559,65.9980582 L32.6592878,65.9943211 L32.5294418,65.9853521 L32.2697498,65.9681616 C30.8799447,65.8478281 29.5067478,65.8164367 28.0188033,65.4935541 C25.0655618,65.0555699 22.263304,64.0592679 19.5169102,62.8163194 C18.8480523,62.4725093 18.1761748,62.1272043 17.5020325,61.7804045 C16.8331746,61.4261305 16.2164061,60.9761877 15.5701958,60.5763215 L14.6099394,59.9582106 L13.7017723,59.260874 C13.1031219,58.7870139 12.4735198,58.3475348 11.8982718,57.841536 C9.58293652,55.8212776 7.52502845,53.4900953 5.74568535,50.9316993 C5.33500964,50.269491 4.92357901,49.6065354 4.51139346,48.9420849 C4.29397691,48.6162126 4.11355137,48.2694128 3.94746928,47.9143915 L3.42582054,46.861286 L2.89586769,45.8096754 C2.7297856,45.4539066 2.60673387,45.0794525 2.45952475,44.7154622 C2.18624422,43.9785126 1.86917842,43.2527742 1.6328889,42.5016238 L0.98139416,40.222013 L0.819841583,39.6494943 L0.7149079,39.0657645 L0.505040533,37.8953151 C0.361606002,37.1142681 0.206092774,36.3324737 0.178160786,35.5364785 L0,33.1178488 C0.0656779169,31.5505229 -0.0211377204,30.0280419 0.252897726,28.400923 L0.404636362,27.1945978 L0.481638057,26.5906878 L0.61374881,26.0054631 L1.15427052,23.663817 C2.08508513,20.6001695 3.3835451,17.6463919 5.10777915,14.9579459 C6.88334766,12.3083655 8.98881559,9.90318925 11.3803977,7.85677142 C11.9745186,7.34329843 12.6229937,6.89709264 13.2397621,6.41725325 C13.5530534,6.18331286 13.8610601,5.94115093 14.1781259,5.71543209 L15.1731086,5.10180571 C15.8427214,4.70567661 16.4813825,4.26021824 17.1713781,3.91117619 C17.8666581,3.57110311 18.5589185,3.23177743 19.2489141,2.89394658 C22.0602309,1.67192571 24.9795011,0.743638293 27.9274581,0.386374698 C29.3874707,0.101610201 30.8595619,0.102357614 32.305231,0.0193947292 L32.5762468,0.00818352849 L32.7113772,0.00295163484 L32.7793199,0.000709394699 C32.7861141,-0.00228025882 32.9582356,0.00519387497 32.9159601,0.00444646159 L33.4330794,0.0343429967 L34.4627883,0.0948834804 C35.1558036,0.151686897 35.8072983,0.138233456 36.5214513,0.25184029 C37.2325846,0.363204883 37.9391884,0.474569477 38.6405078,0.584439244 C38.9877703,0.647221967 39.3448468,0.683845223 39.6807856,0.767555521 L40.678033,1.02840279 C41.3393417,1.20329752 41.9961209,1.37669743 42.6468607,1.54934992 C43.2847669,1.76385756 43.9030452,2.02096776 44.5220785,2.25266591 C45.778263,2.6771967 46.9159253,3.31474032 48.0573622,3.87455294 C48.6401593,4.13465279 49.1557687,4.50238018 49.681947,4.83497913 C50.2051056,5.17131515 50.7229797,5.50540893 51.2348145,5.83501823 C55.2192748,8.66397787 58.0894753,12.144682 60.1156768,15.4392801 C60.5882558,16.2883417 61.0615897,17.0977904 61.4828343,17.8945331 C61.8459502,18.7204249 62.1962324,19.5156727 62.5321711,20.2802766 C62.8650902,21.0433857 63.0606142,21.8244326 63.312757,22.5419495 C63.4365636,22.9014553 63.5573506,23.2527396 63.6751179,23.5950549 C63.7589138,23.9478341 63.8412,24.2916442 63.9219763,24.625738 C64.0789993,25.294673 64.2277183,25.9277321 64.3673782,26.5234206 C64.4851455,27.1220987 64.5319505,27.6961121 64.620276,28.2207963 C64.6965227,28.7477228 64.7674851,29.2350363 64.8316532,29.6819895 C64.8935565,30.1281953 64.8799679,30.5415149 64.9048803,30.907 C64.9667836,32.3726777 65,33.1544721 65,33.1544721 L64.9992451,33.1611988 L64.9992451,33.1611988 Z" id="Fill-1"></path>
                    <g id="Group-6" transform="translate(8.000000, 14.000000)">
                        <path d="M11.5988939,22.7730851 L23.2044697,22.7730851 L23.2044697,4.39212766 L11.5988939,22.7730851 Z M26.3263636,0.185425532 L26.3263636,34.5092553 L23.2044697,34.5092553 L23.2044697,25.9282979 L9.62107576,25.9282979 L4.21177273,34.5092553 L0.494454545,34.5092553 L22.1324091,0.185425532 L26.3263636,0.185425532 L26.3263636,0.185425532 Z" id="Fill-3"></path>
                        <path d="M25.9321364,31.3778723 L31.2226515,31.3778723 C35.0832576,31.3778723 38.3796212,30.0076596 41.1117424,27.267234 C43.8446061,24.5260638 45.2106667,21.2196809 45.2106667,17.3473404 C45.2106667,13.475 43.8446061,10.168617 41.1117424,7.42744681 C38.3796212,4.68702128 35.0832576,3.31606383 31.2226515,3.31606383 L25.9321364,3.31606383 L25.9321364,31.3778723 Z M22.8102424,34.5092553 L22.8102424,0.185425532 L31.2226515,0.185425532 C35.9407576,0.185425532 39.9758333,1.86691489 43.3286212,5.22840426 C46.6643333,8.575 48.3325606,12.6148936 48.3325606,17.3473404 C48.3325606,22.0797872 46.6643333,26.1196809 43.3286212,29.4655319 C39.9758333,32.8285106 35.9407576,34.5092553 31.2226515,34.5092553 L22.8102424,34.5092553 L22.8102424,34.5092553 Z" id="Fill-5"></path>
                    </g>
                    <g id="Group-10" transform="translate(8.000000, 72.000000)" font-size="12" font-family="LucidaGrande, Lucida Grande" font-weight="normal">
                        <text id="ISUALS" letter-spacing="0.106389552">
                            <tspan x="9" y="12">ISUALS</tspan>
                        </text>
                        <text id="V">
                            <tspan x="0" y="12">V</tspan>
                        </text>
                    </g>
                    <g id="Group-14" transform="translate(0.000000, 70.000000)">
                        <polyline id="Fill-11" points="0.72225 0.5054 71.49825 1.57624 0.72225 2.64708 0.72225 0.5054"></polyline>
                        <polyline id="Fill-13" points="71.49825 18.49536 0.72225 17.42452 71.49825 16.35444 71.49825 18.49536"></polyline>
                    </g>
                </g>
            </g>
        </g>
    </g>
</svg>